<?xml version="1.0" encoding="UTF-8" standalone="no"?>
<!DOCTYPE svg PUBLIC "-//W3C//DTD SVG 1.1//EN"
 "http://www.w3.org/Graphics/SVG/1.1/DTD/svg11.dtd">
<!-- Generated by graphviz version 2.36.0 (20140111.2315)
 -->
<!-- Title: G Pages: 1 -->
<svg width="569pt" height="62pt"
 viewBox="0.00 0.00 569.40 61.74" xmlns="http://www.w3.org/2000/svg" xmlns:xlink="http://www.w3.org/1999/xlink">
<g id="graph0" class="graph" transform="scale(1 1) rotate(0) translate(4 57.7401)">
<title>G</title>
<polygon fill="white" stroke="none" points="-4,4 -4,-57.7401 565.401,-57.7401 565.401,4 -4,4"/>
<!-- 0 -->
<g id="node1" class="node"><title>0</title>
<ellipse fill="none" stroke="black" cx="74.9533" cy="-26.8701" rx="74.9067" ry="26.7407"/>
<text text-anchor="middle" x="74.9533" y="-30.6701" font-family="Times,serif" font-size="14.00">0 Start</text>
<text text-anchor="middle" x="74.9533" y="-15.6701" font-family="Times,serif" font-size="14.00"> 上海交通大学</text>
</g>
<!-- 1 -->
<g id="node2" class="node"><title>1</title>
<ellipse fill="none" stroke="black" cx="290.953" cy="-26.8701" rx="67.3507" ry="26.7407"/>
<text text-anchor="middle" x="290.953" y="-30.6701" font-family="Times,serif" font-size="14.00">10.255.249.94</text>
<text text-anchor="middle" x="290.953" y="-15.6701" font-family="Times,serif" font-size="14.00"> 上海大学</text>
</g>
<!-- 0&#45;&gt;1 -->
<g id="edge1" class="edge"><title>0&#45;&gt;1</title>
<path fill="none" stroke="black" d="M150.196,-26.8701C170.611,-26.8701 192.75,-26.8701 213.295,-26.8701"/>
<polygon fill="black" stroke="black" points="213.556,-30.3702 223.556,-26.8701 213.556,-23.3702 213.556,-30.3702"/>
</g>
<!-- 2 -->
<g id="node3" class="node"><title>2</title>
<ellipse fill="none" stroke="black" cx="506.953" cy="-26.8701" rx="54.3945" ry="26.7407"/>
<text text-anchor="middle" x="506.953" y="-30.6701" font-family="Times,serif" font-size="14.00">End</text>
<text text-anchor="middle" x="506.953" y="-15.6701" font-family="Times,serif" font-size="14.00"> 上海大学</text>
</g>
<!-- 1&#45;&gt;2 -->
<g id="edge2" class="edge"><title>1&#45;&gt;2</title>
<path fill="none" stroke="black" d="M358.409,-26.8701C385.072,-26.8701 415.593,-26.8701 442.006,-26.8701"/>
<polygon fill="black" stroke="black" points="442.288,-30.3702 452.288,-26.8701 442.288,-23.3702 442.288,-30.3702"/>
</g>
</g>
</svg>
